<?xml version="1.0" standalone="no"?>
<!DOCTYPE svg PUBLIC "-//W3C//DTD SVG 20010904//EN"
 "http://www.w3.org/TR/2001/REC-SVG-20010904/DTD/svg10.dtd">
<svg version="1.0" xmlns="http://www.w3.org/2000/svg"
 width="512.000000pt" height="512.000000pt" viewBox="0 0 512.000000 512.000000"
 preserveAspectRatio="xMidYMid meet">
<metadata>
Created by potrace 1.11, written by Peter Selinger 2001-2013
</metadata>
<g transform="translate(0.000000,512.000000) scale(0.100000,-0.100000)"
fill="#000000" stroke="none">
<path d="M2569 4836 c-2 -3 -45 -7 -94 -10 -136 -9 -185 -15 -280 -32 -16 -3
-41 -8 -55 -10 -14 -3 -35 -6 -47 -6 -13 -1 -23 -5 -23 -8 0 -4 -6 -7 -12 -7
-7 0 -42 -8 -78 -18 -36 -10 -73 -18 -82 -18 -10 -1 -18 -5 -18 -10 0 -4 -4
-6 -9 -2 -5 3 -12 1 -16 -5 -3 -5 -13 -10 -22 -10 -8 0 -29 -6 -46 -14 -18 -7
-57 -24 -87 -36 -99 -40 -297 -142 -327 -168 -10 -10 -25 -18 -33 -20 -8 -2
-16 -8 -18 -13 -2 -5 -10 -9 -17 -9 -7 0 -15 -4 -17 -8 -1 -5 -25 -23 -53 -42
-27 -18 -52 -36 -55 -39 -3 -3 -27 -24 -55 -46 -116 -92 -267 -242 -354 -350
-31 -38 -58 -72 -61 -75 -15 -13 -141 -212 -165 -260 -15 -30 -33 -58 -39 -62
-6 -4 -7 -8 -3 -8 5 0 1 -12 -7 -27 -9 -16 -27 -57 -41 -93 -14 -36 -30 -74
-35 -85 -16 -35 -64 -200 -62 -212 2 -6 -2 -14 -7 -18 -6 -3 -8 -12 -5 -19 3
-8 0 -17 -5 -21 -6 -3 -9 -10 -7 -13 2 -4 0 -30 -6 -57 -17 -87 -30 -191 -32
-262 0 -24 -3 -43 -6 -43 -14 0 6 -418 25 -516 3 -16 8 -47 11 -69 3 -22 8
-47 11 -55 3 -8 8 -31 10 -50 2 -19 7 -37 11 -40 4 -3 9 -16 11 -30 1 -14 10
-45 18 -70 9 -25 16 -49 18 -55 1 -5 7 -23 13 -38 7 -16 12 -31 12 -34 0 -3 6
-19 14 -36 17 -39 28 -71 26 -76 -1 -2 2 -7 7 -10 4 -3 18 -28 31 -56 13 -27
34 -68 47 -90 12 -22 24 -44 26 -50 4 -11 63 -105 77 -121 5 -6 21 -28 34 -50
14 -22 33 -45 42 -53 9 -7 16 -18 16 -23 0 -5 10 -19 23 -32 12 -13 38 -43 57
-67 47 -58 206 -216 266 -265 27 -21 57 -47 68 -56 10 -9 62 -45 115 -80 131
-86 133 -87 161 -99 14 -6 32 -17 40 -24 8 -7 18 -14 23 -14 4 0 33 -13 65
-28 31 -14 59 -27 62 -28 3 -1 22 -9 44 -18 21 -9 44 -17 50 -17 6 0 23 -6 37
-14 22 -11 71 -28 91 -30 3 -1 10 -4 14 -8 4 -5 17 -8 28 -8 12 0 41 -7 65
-15 24 -9 55 -18 70 -20 30 -4 66 -13 66 -15 0 -1 14 -3 30 -5 17 -2 46 -7 65
-11 65 -12 162 -24 231 -28 31 -2 60 -5 65 -8 11 -7 503 -1 564 7 25 3 61 7
80 9 63 6 133 17 141 22 4 2 10 -2 12 -8 4 -10 6 -10 6 0 1 7 15 12 36 12 19
0 35 4 35 8 0 4 12 7 28 6 15 -1 33 3 40 9 6 5 12 7 12 5 0 -3 26 1 58 9 31 8
67 15 80 16 12 0 22 4 22 7 0 3 8 7 18 8 36 4 127 30 212 61 25 9 47 16 50 17
3 1 20 5 38 9 17 4 32 11 32 16 0 5 9 9 20 9 11 0 28 4 38 9 9 5 42 19 72 32
147 61 287 127 325 153 127 88 168 217 110 340 -63 132 -225 142 -435 27 -28
-15 -223 -102 -228 -101 -1 0 -18 -7 -38 -15 -20 -8 -42 -15 -50 -15 -7 0 -15
-4 -18 -8 -4 -7 -123 -47 -168 -58 -5 -1 -11 -3 -15 -4 -5 -1 -11 -2 -15 -1
-5 0 -8 -3 -8 -9 0 -5 -6 -7 -14 -4 -8 3 -17 0 -21 -5 -3 -6 -11 -9 -16 -6 -5
4 -15 3 -21 -2 -7 -4 -17 -8 -23 -10 -46 -10 -59 -13 -77 -19 -11 -3 -31 -8
-44 -10 -13 -2 -34 -6 -46 -9 -13 -2 -45 -7 -73 -11 -27 -3 -52 -9 -55 -13 -3
-3 -23 -7 -45 -8 -22 -1 -65 -5 -95 -8 -30 -3 -111 -8 -180 -10 -69 -3 -127
-5 -130 -6 -3 -1 -9 0 -15 1 -30 6 -65 5 -65 -3 0 -4 -5 -5 -11 -2 -9 6 -111
16 -181 18 -16 1 -28 4 -28 7 0 3 -18 6 -40 5 -22 -1 -40 3 -40 8 0 4 -4 6 -9
2 -6 -3 -29 -1 -53 5 -24 6 -52 12 -63 15 -117 23 -356 105 -387 133 -10 8
-18 12 -18 9 0 -3 -32 12 -71 34 -40 21 -74 39 -76 39 -2 0 -11 6 -18 12 -34
31 -43 36 -49 31 -3 -4 -6 -1 -6 5 0 7 -7 12 -15 12 -8 0 -15 4 -15 8 0 5 -21
24 -47 43 -48 34 -233 213 -233 226 0 3 -7 13 -15 22 -50 53 -75 85 -75 97 0
8 -4 14 -9 14 -8 0 -111 154 -111 166 0 3 -9 18 -19 32 -10 15 -19 29 -19 32
0 3 -13 34 -30 70 -57 124 -94 230 -107 300 -1 8 -5 23 -9 32 -4 9 -5 21 -2
27 3 5 2 11 -3 13 -4 1 -11 26 -15 53 -3 28 -9 68 -12 90 -4 22 -8 66 -8 97
-1 32 -4 58 -8 58 -8 0 -5 21 5 37 4 6 4 14 -1 17 -8 5 -7 81 3 216 9 114 11
129 19 170 4 19 8 42 10 50 2 13 26 120 32 143 1 4 2 8 3 10 2 1 5 13 7 27 2
13 10 28 17 32 6 4 9 8 5 8 -4 0 4 30 18 68 14 37 26 73 26 80 1 6 5 12 9 12
6 0 16 24 24 59 2 8 8 17 12 20 5 3 19 26 31 51 32 65 63 114 73 118 5 2 9 10
9 17 0 8 6 18 13 22 6 4 18 19 25 33 7 14 25 39 40 56 15 18 52 61 82 97 30
36 60 66 67 66 6 1 15 10 18 21 3 11 11 20 16 20 5 0 21 13 36 28 24 24 62 56
176 148 9 7 17 10 17 6 0 -4 4 -2 8 3 4 6 32 26 62 45 30 19 58 38 61 43 3 5
8 8 10 7 5 -3 82 33 89 41 5 5 119 53 130 54 3 0 14 6 25 12 11 6 22 11 25 11
3 1 12 3 20 5 8 3 30 10 49 16 18 6 37 8 42 5 5 -3 9 -1 9 5 0 5 21 13 48 17
52 9 61 11 65 14 11 9 145 28 235 33 17 1 32 6 32 11 0 6 5 5 11 -1 6 -6 22
-8 38 -4 34 8 174 6 189 -3 7 -4 12 -3 12 1 0 5 9 9 20 9 11 0 20 -3 20 -6 0
-3 17 -6 38 -6 35 -1 112 -9 177 -20 17 -2 39 -6 50 -7 12 -2 27 -7 34 -11 7
-4 15 -5 18 -2 3 3 12 1 20 -6 7 -6 16 -8 20 -5 3 3 21 0 39 -8 19 -8 35 -14
37 -13 7 2 123 -38 128 -45 3 -4 10 -7 15 -5 5 1 49 -17 98 -40 49 -23 93 -42
97 -42 5 0 9 -3 9 -7 0 -5 23 -19 50 -32 28 -14 50 -28 50 -31 0 -4 11 -12 25
-18 27 -13 42 -23 81 -59 14 -13 29 -23 33 -23 13 0 241 -222 241 -234 0 -6 9
-17 20 -24 11 -7 20 -19 20 -26 0 -8 4 -16 8 -18 25 -10 132 -201 171 -303 12
-33 27 -68 32 -77 5 -10 9 -29 9 -42 0 -14 4 -27 10 -31 5 -3 7 -12 3 -20 -3
-8 0 -15 7 -15 6 0 8 -4 5 -10 -3 -5 -2 -27 4 -47 14 -55 22 -111 24 -170 1
-29 6 -53 11 -53 5 0 3 -6 -3 -13 -6 -8 -8 -16 -6 -19 10 -10 4 -203 -11 -308
-3 -25 -7 -56 -9 -70 -2 -14 -4 -25 -5 -25 -1 0 -4 -11 -14 -60 -1 -5 -5 -16
-9 -23 -5 -6 -6 -12 -3 -12 3 0 1 -12 -5 -27 -6 -16 -13 -39 -16 -53 -2 -14
-8 -29 -14 -34 -5 -6 -9 -16 -9 -23 0 -19 -92 -205 -110 -223 -3 -3 -23 -32
-45 -65 -22 -33 -44 -65 -50 -71 -5 -7 -19 -25 -30 -40 -38 -55 -139 -147
-182 -166 -23 -10 -64 -19 -89 -20 -81 -1 -96 47 -57 182 9 30 17 57 18 60 4
24 50 140 55 140 4 0 7 6 7 13 1 6 15 48 32 91 17 44 32 91 35 105 2 14 8 37
14 51 5 14 10 28 10 33 0 11 14 89 19 112 3 11 6 34 8 50 2 17 6 46 10 65 3
19 8 64 11 100 2 36 7 71 9 78 3 9 -45 12 -218 13 -122 0 -422 1 -665 2 -344
2 -446 -1 -454 -10 -7 -9 -7 -13 1 -13 8 0 9 -6 3 -17 -4 -10 -8 -37 -7 -60 1
-24 -1 -43 -4 -43 -3 0 -7 -30 -8 -68 -2 -69 -10 -205 -17 -273 l-4 -38 39 2
c22 2 39 -2 39 -8 0 -7 3 -7 8 0 4 6 21 10 37 10 17 0 33 -4 37 -10 5 -7 8 -7
8 0 0 8 102 12 120 5 3 -1 9 -1 15 0 26 5 236 3 241 -3 4 -4 2 -13 -5 -21 -7
-8 -8 -15 -2 -18 5 -1 -10 -43 -34 -93 -32 -67 -57 -104 -99 -143 -31 -30 -56
-50 -56 -45 0 4 -6 1 -13 -7 -27 -34 -141 -78 -242 -94 -20 -4 -41 -9 -45 -11
-5 -3 -11 -1 -15 5 -4 6 -12 7 -18 3 -13 -8 -68 -11 -81 -5 -4 3 -25 6 -45 8
-20 2 -43 5 -51 7 -73 18 -110 31 -110 37 0 3 -6 7 -13 7 -46 0 -207 149 -247
229 -14 27 -28 51 -31 54 -6 6 -39 87 -44 110 -2 8 -11 48 -20 89 -9 41 -18
78 -21 83 -3 4 0 8 6 8 6 0 8 5 5 11 -9 13 -9 152 -1 204 10 59 28 139 35 150
3 6 6 20 7 32 0 12 6 28 12 36 6 7 13 22 15 33 1 11 13 37 25 58 12 20 22 39
22 42 0 21 87 133 152 197 113 110 255 178 381 181 15 1 27 3 27 6 0 3 28 4
63 4 34 -1 62 -3 62 -4 0 0 25 -3 55 -6 59 -5 76 -8 100 -17 8 -3 29 -9 45
-13 40 -10 44 -11 50 -14 3 -1 8 -3 13 -4 21 -4 122 -60 122 -67 0 -5 5 -9 11
-9 25 0 129 -126 129 -155 0 -8 5 -15 11 -15 5 0 8 -4 4 -9 -3 -6 3 -15 14
-21 11 -5 22 -7 24 -3 3 5 145 8 316 8 l312 0 -5 30 c-2 17 -5 30 -6 30 -1 0
-3 9 -5 20 -6 35 -11 50 -22 70 -5 11 -8 26 -6 33 3 6 0 12 -6 12 -6 0 -11 7
-11 14 0 17 -76 167 -89 175 -4 4 -15 20 -24 36 -9 17 -36 52 -61 80 -25 27
-46 53 -46 57 0 4 -4 8 -9 8 -5 0 -26 16 -47 35 -20 19 -57 48 -83 65 -25 16
-52 34 -59 40 -18 16 -206 105 -215 102 -4 -1 -21 5 -37 13 -17 9 -30 13 -30
9 0 -4 -7 -1 -15 6 -8 7 -15 9 -15 6 0 -4 -8 -2 -17 3 -10 5 -31 11 -48 14
-16 3 -43 8 -60 11 -111 21 -205 29 -325 28 -107 -1 -200 -10 -295 -28 -11 -2
-31 -6 -45 -9 -14 -2 -50 -12 -80 -20 -30 -8 -62 -17 -70 -19 -67 -18 -281
-113 -288 -128 -2 -5 -10 -8 -18 -8 -8 0 -14 -4 -14 -10 0 -5 -11 -12 -25 -16
-14 -3 -25 -9 -25 -13 0 -4 -14 -15 -32 -25 -17 -11 -43 -29 -57 -40 -35 -29
-211 -204 -211 -211 0 -4 -55 -81 -80 -112 -6 -7 -11 -16 -11 -20 0 -5 -6 -15
-13 -23 -25 -28 -121 -235 -132 -285 -2 -5 -5 -19 -7 -31 -3 -11 -12 -37 -21
-57 -8 -21 -11 -35 -5 -31 8 4 8 1 1 -12 -11 -23 -30 -118 -38 -199 -9 -80 -8
-318 1 -375 21 -132 78 -331 97 -338 4 -2 8 -10 8 -18 0 -8 11 -32 24 -53 14
-21 22 -42 19 -45 -4 -3 -1 -6 5 -6 7 0 12 -7 12 -15 0 -8 5 -15 10 -15 6 0
10 -7 10 -15 0 -8 5 -15 10 -15 6 0 10 -4 10 -10 0 -5 10 -22 22 -37 34 -42
208 -213 217 -213 4 0 18 -9 31 -20 13 -11 29 -20 37 -20 7 0 13 -4 13 -9 0
-13 175 -96 265 -124 125 -40 219 -58 312 -61 24 0 43 -4 43 -7 0 -7 250 -3
315 5 80 9 131 18 190 33 33 8 67 16 75 18 23 5 144 51 177 68 27 14 31 14 45
-1 25 -28 77 -72 86 -72 5 0 18 -9 30 -20 12 -11 25 -21 29 -21 5 -1 18 -5 31
-10 12 -5 33 -11 45 -14 73 -16 113 -23 119 -19 4 2 9 1 11 -3 4 -7 182 -9
182 -3 0 1 19 3 42 5 23 2 61 9 85 16 24 6 50 12 59 14 24 5 142 56 158 68 7
6 19 12 26 13 15 2 78 45 83 57 2 4 8 7 13 7 5 0 21 10 36 22 45 37 207 201
228 232 11 16 28 37 38 48 9 10 17 21 17 25 0 3 11 21 25 39 14 18 25 37 25
43 0 6 3 11 8 11 4 0 12 10 18 23 6 12 34 66 62 120 28 53 48 97 45 97 -3 0
-1 6 5 13 25 31 99 279 105 350 1 9 4 17 8 17 4 0 5 14 4 30 -1 17 0 30 4 30
4 0 7 10 8 23 4 88 9 137 15 137 8 0 4 27 -5 36 -3 4 -3 14 2 23 9 19 7 183
-2 199 -4 6 -3 13 3 17 6 4 8 11 5 16 -6 9 -18 100 -17 129 0 8 -2 22 -5 30
-3 8 -7 33 -9 55 -4 40 -11 80 -14 80 -1 0 -4 13 -6 29 -3 15 -16 62 -29 104
-13 42 -22 79 -19 83 2 4 -1 9 -6 11 -6 2 -13 10 -15 18 -20 90 -167 366 -218
412 -10 9 -18 20 -19 25 0 26 -167 208 -294 322 -64 56 -230 181 -241 181 -5
0 -18 8 -29 18 -30 27 -246 140 -329 172 -55 22 -90 35 -95 36 -3 0 -14 4 -25
8 -56 22 -118 40 -200 59 -16 4 -41 10 -55 14 -14 3 -37 6 -52 7 -16 0 -28 3
-28 6 0 3 -8 6 -17 7 -10 0 -38 4 -63 8 -25 3 -60 7 -77 7 -18 1 -33 4 -33 7
0 3 -28 6 -63 6 -34 0 -79 3 -99 6 -25 4 -38 2 -38 -5 0 -6 -4 -5 -9 2 -4 8
-12 14 -16 14 -4 0 -12 -6 -16 -14 -5 -7 -9 -8 -9 -3 0 6 -25 10 -55 10 -30 0
-55 -4 -55 -10 0 -5 -4 -4 -8 3 -5 7 -10 10 -13 8z"/>
</g>
</svg>
