<?xml version="1.0" standalone="no"?>
<!DOCTYPE svg PUBLIC "-//W3C//DTD SVG 20010904//EN"
 "http://www.w3.org/TR/2001/REC-SVG-20010904/DTD/svg10.dtd">
<svg version="1.0" xmlns="http://www.w3.org/2000/svg"
 width="400.000000pt" height="400.000000pt" viewBox="0 0 400.000000 400.000000"
 preserveAspectRatio="xMidYMid meet">
<metadata>
Created by potrace 1.11, written by Peter Selinger 2001-2013
</metadata>
<g transform="translate(0.000000,400.000000) scale(0.100000,-0.100000)"
fill="#000000" stroke="none">
<path d="M1927 3773 c-1 -1 -32 -4 -67 -7 -36 -3 -90 -10 -120 -16 -30 -6 -68
-13 -85 -16 -240 -40 -552 -187 -770 -363 -357 -286 -585 -670 -640 -1076 -4
-27 -11 -70 -15 -94 -13 -70 -4 -416 13 -506 60 -318 162 -546 352 -790 269
-345 629 -561 1075 -644 160 -30 235 -36 460 -36 395 0 707 61 1065 210 275
113 349 177 348 297 -2 97 -71 168 -163 168 -53 -1 -102 -18 -265 -92 -103
-47 -242 -101 -360 -138 -42 -13 -204 -51 -240 -56 -16 -2 -41 -6 -54 -9 -13
-2 -49 -7 -80 -10 -31 -4 -67 -8 -81 -11 -33 -5 -308 -5 -340 0 -14 2 -54 7
-90 11 -222 21 -483 117 -652 238 -288 207 -503 551 -562 902 -30 172 -26 410
10 570 8 39 17 79 19 89 26 118 120 316 210 441 100 140 292 322 420 398 121
72 325 154 420 170 17 3 41 8 55 11 62 14 106 17 265 20 279 6 483 -37 700
-146 377 -190 616 -513 660 -893 11 -93 13 -248 3 -317 -4 -34 -10 -78 -13
-99 -11 -87 -76 -256 -138 -359 -33 -55 -153 -213 -177 -233 -64 -54 -151 -75
-185 -47 -30 25 -11 117 61 292 41 99 71 194 78 243 2 11 6 34 9 50 8 38 17
101 26 188 l7 67 -190 1 c-605 2 -847 2 -850 -2 -2 -2 -7 -58 -11 -123 -4 -66
-8 -127 -10 -135 -2 -9 -4 -45 -6 -81 l-4 -65 213 0 213 0 -7 -30 c-44 -214
-277 -346 -529 -300 -187 34 -331 184 -379 395 -24 103 -16 275 17 380 77 246
242 409 449 446 120 21 309 -8 409 -62 62 -34 125 -97 149 -149 l18 -40 234 2
c128 1 245 2 260 2 l26 1 -14 53 c-85 322 -332 543 -697 623 -98 22 -337 26
-452 8 -353 -55 -641 -244 -807 -530 -41 -71 -104 -223 -113 -273 -3 -19 -8
-38 -11 -42 -2 -4 -11 -55 -19 -114 -14 -101 -15 -305 -1 -365 4 -14 9 -38 11
-55 26 -147 120 -321 239 -439 174 -174 411 -264 711 -272 185 -4 325 19 469
77 74 30 72 30 121 -14 33 -31 110 -66 177 -82 77 -18 236 -13 323 10 236 63
454 265 603 560 35 69 86 199 97 245 43 177 50 239 50 420 0 174 -9 259 -37
365 -5 22 -12 48 -14 58 -13 69 -90 246 -147 340 -155 254 -418 484 -707 620
-82 38 -277 104 -337 113 -21 3 -41 8 -44 10 -6 3 -65 13 -189 30 -35 5 -369
12 -373 7z"/>
</g>
</svg>
